<svg width="1000" height="500" viewBox="0 0 1000 500" fill="none" xmlns="http://www.w3.org/2000/svg">
<g clip-path="url(#clip0_443_85)">
<g clip-path="url(#clip1_443_85)">
<path fill-rule="evenodd" clip-rule="evenodd" d="M148.956 302.9C148.968 298.064 151.716 293.336 156.192 288.044L130.308 271.676C128.676 270.968 128.712 269.972 129.66 268.796L135.144 264.116C136.14 263.504 137.196 263.24 138.336 263.552L170.28 268.952L196.896 240.128L134.76 198.092C133.188 197.168 133.056 196.124 134.676 194.912L143.64 187.76L224.64 210.524L248.568 184.94C256.596 177.992 264.396 174.884 270.384 176.36C273.684 177.176 274.848 178.16 275.868 181.256C277.848 187.328 274.776 195.488 267.516 203.888L241.932 227.816L264.696 308.816L257.544 317.78C256.332 319.388 255.288 319.256 254.364 317.696L212.316 255.572L183.492 282.176L188.892 314.12C189.204 315.248 188.952 316.304 188.328 317.312L183.648 322.796C182.484 323.744 181.476 323.78 180.768 322.148L164.4 296.264C159.084 300.752 154.356 303.5 149.496 303.5C149.052 303.488 148.956 303.332 148.956 302.9Z" fill="black"/>
</g>
<path d="M383.964 299V207.72H441.504V225.08H404.544V246.22H436.184V263.58H404.544V299H383.964ZM457.382 299V207.72H477.962V281.64H514.082V299H457.382ZM529.843 299V207.72H550.423V299H529.843ZM612.272 300.68C603.965 300.68 596.405 298.907 589.592 295.36C582.872 291.813 577.505 286.587 573.492 279.68C569.572 272.68 567.612 264.093 567.612 253.92C567.612 243.84 569.619 235.253 573.632 228.16C577.739 220.973 583.152 215.513 589.872 211.78C596.592 207.953 604.012 206.04 612.132 206.04C618.759 206.04 624.452 207.253 629.212 209.68C633.972 212.107 637.845 214.86 640.832 217.94L630.052 231.1C627.719 229.047 625.245 227.32 622.632 225.92C620.019 224.52 616.752 223.82 612.832 223.82C605.739 223.82 599.952 226.433 595.472 231.66C590.992 236.887 588.752 244.073 588.752 253.22C588.752 262.553 590.899 269.833 595.192 275.06C599.485 280.287 605.879 282.9 614.372 282.9C616.239 282.9 618.059 282.667 619.832 282.2C621.605 281.733 623.052 281.033 624.172 280.1V264.42H609.052V247.62H642.372V289.62C639.199 292.7 634.952 295.313 629.632 297.46C624.405 299.607 618.619 300.68 612.272 300.68ZM661.229 299V207.72H681.809V242.86H713.309V207.72H734.029V299H713.309V260.92H681.809V299H661.229ZM773.345 299V225.08H748.285V207.72H819.125V225.08H794.065V299H773.345ZM857.663 300.68C851.69 300.68 845.717 299.56 839.743 297.32C833.863 295.08 828.59 291.813 823.923 287.52L835.683 273.38C838.95 276.18 842.59 278.467 846.603 280.24C850.617 282.013 854.49 282.9 858.223 282.9C862.517 282.9 865.69 282.107 867.743 280.52C869.89 278.933 870.963 276.787 870.963 274.08C870.963 271.187 869.75 269.087 867.323 267.78C864.99 266.38 861.817 264.84 857.803 263.16L845.903 258.12C842.823 256.813 839.883 255.087 837.083 252.94C834.283 250.7 831.997 247.947 830.223 244.68C828.45 241.413 827.563 237.587 827.563 233.2C827.563 228.16 828.917 223.587 831.623 219.48C834.423 215.373 838.25 212.107 843.103 209.68C848.05 207.253 853.697 206.04 860.043 206.04C865.27 206.04 870.497 207.067 875.723 209.12C880.95 211.173 885.523 214.16 889.443 218.08L878.943 231.1C875.957 228.767 872.97 226.993 869.983 225.78C866.997 224.473 863.683 223.82 860.043 223.82C856.497 223.82 853.65 224.567 851.503 226.06C849.45 227.46 848.423 229.467 848.423 232.08C848.423 234.88 849.73 236.98 852.343 238.38C855.05 239.78 858.363 241.273 862.283 242.86L874.043 247.62C879.55 249.86 883.937 252.94 887.203 256.86C890.47 260.78 892.103 265.96 892.103 272.4C892.103 277.44 890.75 282.107 888.043 286.4C885.337 290.693 881.417 294.147 876.283 296.76C871.15 299.373 864.943 300.68 857.663 300.68Z" fill="black"/>
</g>
<defs>
<clipPath id="clip0_443_85">
<rect width="1000" height="500" fill="white"/>
</clipPath>
<clipPath id="clip1_443_85">
<rect width="147.456" height="147.456" fill="white" transform="translate(129 176)"/>
</clipPath>
</defs>
</svg>
