<svg version="1.1" xmlns="http://www.w3.org/2000/svg" xmlns:xlink="http://www.w3.org/1999/xlink" width="700" height="700" viewBox="180.5,105,700,700"><g id="document" fill="#ffffff" fill-rule="nonzero" stroke="#000000" stroke-width="0" stroke-linecap="butt" stroke-linejoin="miter" stroke-miterlimit="10" stroke-dasharray="" stroke-dashoffset="0" font-family="none" font-weight="none" font-size="none" text-anchor="none" style="mix-blend-mode: normal"><rect x="180.5" y="75" transform="scale(1,1.4)" width="700" height="500" id="Shape 1 1" vector-effect="non-scaling-stroke"/></g><g fill="#63666a" fill-rule="nonzero" stroke="none" stroke-width="none" stroke-linecap="butt" stroke-linejoin="miter" stroke-miterlimit="10" stroke-dasharray="" stroke-dashoffset="0" font-family="none" font-weight="none" font-size="none" text-anchor="none" style="mix-blend-mode: normal"><g id="stage"><g id="layer1 1"><g id="Group 1"><g id="Group 1" stroke-width="1" font-family="ui-sans-serif, system-ui, -apple-system, BlinkMacSystemFont, &quot;Segoe UI&quot;, Roboto, &quot;Helvetica Neue&quot;, Arial, &quot;Noto Sans&quot;, sans-serif, &quot;Apple Color Emoji&quot;, &quot;Segoe UI Emoji&quot;, &quot;Segoe UI Symbol&quot;, &quot;Noto Color Emoji&quot;" font-weight="400" font-size="14" text-anchor="start"/><path d="M537.31861,454.50557v3.6875h-1.10415v-8.58334h5.02084v1.04168h-3.91669v2.83332h3.54168v1.02085zM537.31861,454.50557" id="CompoundPath 1" stroke-width="0.35278"/><path d="M543.18595,449.60972v8.58334h-1.10415v-8.58334zM543.18595,449.60972" id="CompoundPath 1" stroke-width="0.35278"/><path d="M545.88555,450.27639c0,0.22413 -0.07824,0.41148 -0.22904,0.56251c-0.15609,0.15609 -0.34394,0.22904 -0.56251,0.22904c-0.20825,0 -0.39061,-0.07294 -0.54164,-0.22904c-0.15609,-0.15118 -0.22904,-0.33865 -0.22904,-0.56251c0,-0.20296 0.07294,-0.3854 0.22904,-0.54164c0.15118,-0.15118 0.33335,-0.22904 0.54164,-0.22904c0.21883,0 0.40626,0.07824 0.56251,0.22904c0.15118,0.15609 0.22904,0.33865 0.22904,0.54164zM545.65651,452.31805v5.87501h-1.10415v-5.87501zM545.65651,452.31805" id="CompoundPath 1" stroke-width="0.35278"/><path d="M549.58775,457.38058c0.53647,0 0.98438,-0.19276 1.33334,-0.58333c0.35943,-0.40105 0.54168,-0.91669 0.54168,-1.54167c0,-0.60937 -0.18217,-1.11458 -0.54168,-1.52084c-0.34885,-0.40105 -0.79688,-0.60416 -1.33334,-0.60416c-0.53125,0 -0.97395,0.20296 -1.33334,0.60416c-0.36472,0.40626 -0.54164,0.91147 -0.54164,1.52084c0,0.62498 0.17726,1.13541 0.54164,1.52081c0.35943,0.40626 0.80209,0.6042 1.33334,0.6042zM549.54617,460.98474c-0.32277,0 -0.6302,-0.04687 -0.91665,-0.1251c-0.29178,-0.08315 -0.55729,-0.20296 -0.7917,-0.35414c-0.23962,-0.15609 -0.4427,-0.33865 -0.60416,-0.54168c-0.16668,-0.20825 -0.29669,-0.44791 -0.37493,-0.70832l1.04168,-0.41666c0.10923,0.32806 0.31257,0.60416 0.60416,0.81249c0.30198,0.20296 0.65106,0.31257 1.04168,0.31257c0.59376,0 1.0625,-0.18217 1.39582,-0.54164c0.34394,-0.36472 0.52086,-0.85939 0.52086,-1.47919v-0.56247h-0.04157c-0.20825,0.30728 -0.49482,0.55208 -0.85417,0.72915c-0.36472,0.17726 -0.75519,0.27099 -1.16666,0.27099c-0.76562,0 -1.42707,-0.29707 -1.97919,-0.89582c-0.54164,-0.60937 -0.81249,-1.35417 -0.81249,-2.22917c0,-0.86982 0.27099,-1.61461 0.81249,-2.22917c0.55211,-0.59376 1.21357,-0.89586 1.97919,-0.89586c0.41148,0 0.80209,0.09373 1.16666,0.27099c0.35943,0.16668 0.64585,0.41148 0.85417,0.72918h0.04157v-0.81252h1.0625v5.625c0,0.94273 -0.27591,1.67709 -0.81252,2.20834c-0.54164,0.55208 -1.26561,0.83335 -2.16665,0.83335zM549.54617,460.98474" id="CompoundPath 1" stroke-width="0.35278"/><path d="M553.62315,449.60972h1.10415v2.70833l-0.04157,0.81252h0.04157c0.16139,-0.28649 0.42187,-0.52603 0.77083,-0.70836c0.34356,-0.19276 0.71354,-0.29178 1.10415,-0.29178c0.70314,0 1.25522,0.21354 1.64583,0.62502c0.38544,0.40622 0.58333,0.98959 0.58333,1.75v3.6875h-1.10415v-3.47917c0,-1.05207 -0.46874,-1.58332 -1.39582,-1.58332c-0.44795,0 -0.82813,0.19276 -1.14584,0.56247c-0.30728,0.36472 -0.45834,0.79688 -0.45834,1.29169v3.20833h-1.10415zM553.62315,449.60972" id="CompoundPath 1" stroke-width="0.35278"/><path d="M561.95331,458.29723c-0.4896,0 -0.89065,-0.14589 -1.20835,-0.43748c-0.30728,-0.30198 -0.46874,-0.71875 -0.47913,-1.25v-3.29167h-1.02085v-1.00003h1.02085v-1.81247h1.10415v1.81247h1.43751v1.00003h-1.43751v2.93749c0,0.39061 0.07294,0.65624 0.22904,0.79166c0.15118,0.1406 0.32277,0.20825 0.52082,0.20825c0.07824,0 0.16668,-0.00378 0.24983,-0.02268c0.07824,-0.02646 0.16668,-0.05216 0.2502,-0.08315l0.33335,0.97916c-0.2812,0.10923 -0.61455,0.16668 -0.99999,0.16668zM561.95331,458.29723" id="CompoundPath 1" stroke-width="0.35278"/><path d="M568.34214,456.56806c0,0.51564 -0.22413,0.94791 -0.66667,1.29169c-0.44791,0.34394 -1.01042,0.52082 -1.68752,0.52082c-0.59894,0 -1.1198,-0.15609 -1.56249,-0.45834c-0.44791,-0.30198 -0.76562,-0.70832 -0.95834,-1.20831l0.97916,-0.43752c0.13531,0.36472 0.34356,0.64063 0.62502,0.83335c0.27591,0.19805 0.58333,0.29178 0.91665,0.29178c0.34356,0 0.63541,-0.07294 0.875,-0.22904c0.23433,-0.15118 0.35414,-0.33335 0.35414,-0.54164c0,-0.36964 -0.28649,-0.65106 -0.85417,-0.83335l-1.02081,-0.24983c-1.14062,-0.27591 -1.70835,-0.82292 -1.70835,-1.64583c0,-0.53647 0.21354,-0.96877 0.64585,-1.29169c0.4427,-0.31786 1.0052,-0.47917 1.68748,-0.47917c0.51043,0 0.9792,0.13002 1.39586,0.37493c0.42709,0.23962 0.72915,0.56772 0.89582,0.97916l-0.99999,0.41669c-0.11452,-0.24491 -0.29669,-0.44273 -0.54168,-0.58333c-0.2502,-0.13531 -0.53125,-0.20825 -0.83331,-0.20825c-0.29178,0 -0.55729,0.07824 -0.7917,0.22904c-0.22413,0.1406 -0.33335,0.30728 -0.33335,0.49999c0,0.34885 0.31786,0.59376 0.95834,0.72918l0.875,0.22904c1.16149,0.29178 1.75,0.88543 1.75,1.77082zM568.34214,456.56806" id="CompoundPath 1" stroke-width="0.35278"/></g></g></g></g></svg>